<?xml version="1.0" standalone="no"?>
<!DOCTYPE svg PUBLIC "-//W3C//DTD SVG 20010904//EN"
 "http://www.w3.org/TR/2001/REC-SVG-20010904/DTD/svg10.dtd">
<svg version="1.0" xmlns="http://www.w3.org/2000/svg"
 width="634.000000pt" height="301.000000pt" viewBox="0 0 634.000000 301.000000"
 preserveAspectRatio="xMidYMid meet">

<g transform="translate(0.000000,301.000000) scale(0.100000,-0.100000)"
fill="#000000" stroke="none">
<path d="M310 2810 c0 -5 7 -10 15 -10 11 0 15 -12 15 -50 0 -27 5 -50 10 -50
6 0 10 23 10 50 0 38 4 50 15 50 8 0 15 5 15 10 0 6 -18 10 -40 10 -22 0 -40
-4 -40 -10z"/>
<path d="M550 2799 c0 -15 -4 -19 -16 -15 -22 8 -44 -11 -44 -39 0 -29 18 -43
53 -43 26 0 27 2 27 59 0 33 -4 59 -10 59 -5 0 -10 -9 -10 -21z m-5 -55 c0
-10 -8 -20 -17 -22 -18 -3 -26 27 -11 42 12 11 28 0 28 -20z"/>
<path d="M770 2800 c0 -11 5 -20 10 -20 6 0 10 9 10 20 0 11 -4 20 -10 20 -5
0 -10 -9 -10 -20z"/>
<path d="M940 2810 c0 -5 7 -10 15 -10 11 0 15 -12 15 -50 0 -27 5 -50 10 -50
6 0 10 23 10 50 0 38 4 50 15 50 8 0 15 5 15 10 0 6 -18 10 -40 10 -22 0 -40
-4 -40 -10z"/>
<path d="M1170 2760 c0 -59 0 -60 28 -60 43 0 65 22 64 61 -1 39 -23 59 -64
59 -28 0 -28 -1 -28 -60z m70 20 c14 -26 -3 -60 -30 -60 -17 0 -20 7 -20 40 0
33 3 40 20 40 10 0 24 -9 30 -20z"/>
<path d="M411 2771 c-34 -34 -2 -82 43 -65 29 11 15 84 -16 84 -4 0 -17 -9
-27 -19z m42 -13 c6 -19 -3 -38 -18 -38 -18 0 -26 15 -19 34 7 19 31 21 37 4z"/>
<path d="M613 2783 c-21 -8 -15 -22 7 -16 11 3 20 1 20 -5 0 -6 -10 -12 -22
-14 -15 -2 -23 -10 -23 -23 0 -16 7 -20 33 -22 31 -1 32 0 32 37 0 25 -5 40
-16 44 -9 3 -16 6 -17 5 -1 0 -8 -3 -14 -6z m25 -54 c-2 -6 -8 -10 -13 -10 -5
0 -11 4 -13 10 -2 6 4 11 13 11 9 0 15 -5 13 -11z"/>
<path d="M680 2775 c0 -8 5 -26 12 -40 9 -21 9 -31 -1 -47 -11 -17 -10 -19 6
-16 10 2 25 22 36 52 21 57 17 88 -5 36 l-14 -35 -12 33 c-12 34 -22 42 -22
17z"/>
<path d="M817 2783 c-16 -15 -6 -41 19 -47 20 -5 24 -10 16 -18 -8 -8 -16 -7
-28 3 -15 12 -17 12 -12 -1 6 -20 42 -25 56 -8 13 17 5 30 -28 45 l-25 12 28
0 c16 1 26 5 22 11 -7 11 -38 13 -48 3z"/>
<path d="M1048 2779 c-21 -12 -24 -49 -6 -67 18 -18 46 -14 58 7 14 27 13 37
-6 55 -18 19 -23 19 -46 5z m37 -34 c0 -11 -8 -21 -17 -23 -14 -3 -18 3 -18
23 0 20 4 26 18 23 9 -2 17 -12 17 -23z"/>
<path d="M1301 2771 c-34 -34 -2 -82 43 -65 29 11 15 84 -16 84 -4 0 -17 -9
-27 -19z m42 -13 c6 -19 -3 -38 -18 -38 -18 0 -26 15 -19 34 7 19 31 21 37 4z"/>
<path d="M6019 2773 c-11 -15 -11 -16 1 -5 8 6 22 12 31 12 10 0 19 -6 22 -12
2 -7 8 -9 13 -5 10 9 -14 27 -37 27 -9 0 -23 -8 -30 -17z"/>
<path d="M6010 2731 c0 -6 5 -13 10 -16 6 -3 10 1 10 9 0 9 -4 16 -10 16 -5 0
-10 -4 -10 -9z"/>
<path d="M6080 2733 c0 -5 -10 -15 -22 -21 -13 -6 -18 -11 -12 -11 16 -1 50
27 41 35 -4 4 -7 3 -7 -3z"/>
<path d="M338 2398 c-8 -13 -20 -34 -27 -48 -11 -22 -10 -23 2 -7 16 20 54 23
60 5 2 -7 3 -4 1 7 -2 11 -4 30 -4 43 0 12 -4 22 -9 22 -5 0 -15 -10 -23 -22z
m22 -8 c0 -11 -7 -20 -15 -20 -13 0 -13 3 -3 20 7 11 14 20 15 20 2 0 3 -9 3
-20z"/>
<path d="M597 2406 c-4 -10 -7 -25 -6 -34 0 -11 4 -9 10 7 5 13 8 29 6 35 -2
5 -6 2 -10 -8z"/>
<path d="M1041 2404 c0 -11 3 -14 6 -6 3 7 2 16 -1 19 -3 4 -6 -2 -5 -13z"/>
<path d="M1167 2406 c-4 -10 -7 -25 -6 -34 0 -11 4 -9 10 7 5 13 8 29 6 35 -2
5 -6 2 -10 -8z"/>
<path d="M410 2385 c-15 -18 -9 -47 10 -52 12 -4 12 -3 2 5 -18 12 -11 47 8
47 10 0 14 -9 13 -30 -2 -25 -1 -27 7 -10 14 33 11 51 -9 52 -11 1 -25 -5 -31
-12z"/>
<path d="M486 2391 c-4 -5 4 -7 16 -3 19 5 21 2 15 -29 -5 -29 -4 -31 5 -12 6
12 8 29 5 37 -7 17 -32 21 -41 7z"/>
<path d="M632 2388 c-17 -17 -15 -47 3 -54 21 -9 47 15 43 40 -4 24 -28 32
-46 14z m36 -20 c-4 -29 -38 -38 -38 -10 0 22 8 32 27 32 9 0 13 -8 11 -22z"/>
<path d="M770 2373 l-13 -28 -7 25 c-6 20 -7 16 -7 -17 l1 -42 24 40 c13 22
22 42 20 45 -3 2 -11 -8 -18 -23z"/>
<path d="M812 2388 c-17 -17 -15 -47 3 -54 21 -9 47 15 43 40 -4 24 -28 32
-46 14z m36 -20 c-4 -29 -38 -38 -38 -10 0 22 8 32 27 32 9 0 13 -8 11 -22z"/>
<path d="M881 2384 c0 -11 3 -14 6 -6 3 7 2 16 -1 19 -3 4 -6 -2 -5 -13z"/>
<path d="M960 2385 c-6 -8 -10 -20 -7 -27 4 -8 6 -7 6 4 1 9 9 22 19 27 9 6
12 11 6 11 -6 0 -17 -7 -24 -15z"/>
<path d="M1100 2396 c0 -2 9 -6 20 -9 11 -3 18 -1 14 4 -5 9 -34 13 -34 5z"/>
<path d="M921 2378 c0 -9 -4 -25 -7 -35 -5 -17 -5 -17 6 0 6 10 9 25 7 35 -4
15 -5 15 -6 0z"/>
<path d="M1062 2370 c0 -14 2 -19 5 -12 2 6 2 18 0 25 -3 6 -5 1 -5 -13z"/>
<path d="M6080 2370 c0 -13 -7 -20 -20 -20 -11 0 -20 5 -20 10 0 7 -7 7 -22
-1 -29 -15 -5 -29 40 -22 26 4 32 10 32 29 0 13 -2 24 -5 24 -3 0 -5 -9 -5
-20z"/>
<path d="M1032 2360 c0 -14 2 -19 5 -12 2 6 2 18 0 25 -3 6 -5 1 -5 -13z"/>
<path d="M1113 2367 c23 -19 22 -31 -4 -24 -16 4 -19 3 -11 -5 12 -12 42 -4
42 11 0 6 -10 15 -22 21 -21 10 -21 10 -5 -3z"/>
<path d="M870 2351 c0 -10 19 -25 25 -20 1 2 -3 10 -11 17 -8 7 -14 8 -14 3z"/>
<path d="M244 2047 c-3 -8 -4 -36 -2 -63 l3 -49 60 0 60 0 0 60 0 60 -58 3
c-42 2 -59 -1 -63 -11z m106 -16 c0 -4 -13 -24 -29 -44 -27 -35 -29 -36 -45
-18 -20 22 -21 35 0 27 10 -4 23 3 36 19 19 25 38 33 38 16z"/>
<path d="M482 2029 c8 -25 8 -33 -3 -40 -15 -9 1 -11 99 -10 29 0 50 -4 47 -8
-8 -13 18 -30 43 -28 14 1 22 8 22 19 0 26 28 22 33 -4 l4 -23 2 23 c0 12 4
22 7 22 3 0 15 -10 25 -22 l20 -23 -11 23 c-15 30 12 31 32 1 10 -16 20 -20
36 -15 12 4 22 12 22 18 0 7 -5 6 -15 -2 -15 -12 -35 -6 -35 11 0 5 26 9 59 9
50 0 59 -3 64 -20 7 -26 57 -24 57 2 0 10 7 18 15 18 10 0 15 -11 16 -37 1
-21 4 -29 6 -17 3 16 10 20 23 17 39 -10 51 67 13 82 -14 5 -14 3 2 -15 18
-20 18 -20 -8 -20 -19 0 -25 4 -21 14 3 8 1 17 -5 21 -7 3 -11 -2 -11 -14 0
-28 -28 -27 -33 2 l-4 22 -2 -22 c-1 -16 -7 -23 -20 -23 -12 0 -21 8 -24 23
l-4 22 -2 -22 c-1 -19 -7 -23 -36 -23 -23 0 -35 5 -35 14 0 29 -53 29 -64 0
-3 -8 -15 -14 -27 -14 -18 0 -19 2 -9 15 8 9 9 15 2 15 -6 0 -14 -6 -19 -12
-5 -9 -10 -1 -14 22 l-6 35 -2 -37 c-1 -27 -6 -38 -16 -38 -8 0 -15 6 -15 14
0 8 -5 18 -10 21 -14 9 -50 -4 -50 -17 0 -7 5 -6 15 2 15 12 35 6 35 -11 0 -5
-18 -9 -40 -9 -22 0 -40 1 -40 3 0 1 4 17 9 35 6 20 6 32 0 32 -5 0 -9 -10 -9
-22 0 -24 -16 -56 -23 -48 -2 3 -8 17 -13 33 -12 36 -27 35 -37 -3 -10 -40
-25 -38 -33 5 -3 19 -10 35 -15 35 -4 0 -3 -14 3 -31z m78 -26 c0 -7 -7 -13
-16 -13 -11 0 -14 5 -10 16 3 9 6 21 6 27 0 16 20 -14 20 -30z m288 -1 c2 -7
-6 -12 -17 -12 -21 0 -27 11 -14 24 9 9 26 2 31 -12z m-168 -31 c0 -6 -5 -13
-10 -16 -15 -9 -43 3 -35 15 8 13 45 13 45 1z m298 -3 c-3 -7 -11 -13 -18 -13
-7 0 -15 6 -17 13 -3 7 4 12 17 12 13 0 20 -5 18 -12z m95 -3 c-6 -18 -34 -16
-41 3 -2 7 6 12 22 12 19 0 24 -4 19 -15z"/>
<path d="M6075 2020 c3 -5 8 -10 11 -10 2 0 4 5 4 10 0 6 -5 10 -11 10 -5 0
-7 -4 -4 -10z"/>
<path d="M6075 1990 c-3 -5 -1 -10 4 -10 6 0 11 5 11 10 0 6 -2 10 -4 10 -3 0
-8 -4 -11 -10z"/>
<path d="M500 1955 c0 -8 5 -15 10 -15 6 0 10 7 10 15 0 8 -4 15 -10 15 -5 0
-10 -7 -10 -15z"/>
<path d="M570 1955 c0 -8 5 -15 10 -15 6 0 10 7 10 15 0 8 -4 15 -10 15 -5 0
-10 -7 -10 -15z"/>
<path d="M283 1653 c15 -2 37 -2 50 0 12 2 0 4 -28 4 -27 0 -38 -2 -22 -4z"/>
<path d="M483 1620 c6 -22 13 -38 15 -36 6 7 -10 76 -18 76 -4 0 -2 -18 3 -40z"/>
<path d="M537 1653 c-3 -4 -8 -25 -12 -46 -4 -20 -11 -37 -16 -37 -5 0 -9 -7
-9 -15 0 -33 18 -12 32 38 l15 52 11 -35 12 -35 -5 35 c-6 36 -19 58 -28 43z"/>
<path d="M596 1615 c-4 -25 -11 -45 -17 -45 -5 0 -9 -7 -9 -15 0 -36 19 -10
33 45 8 33 11 60 7 60 -4 0 -11 -20 -14 -45z"/>
<path d="M773 1600 c0 -36 2 -55 4 -42 5 27 19 28 33 2 6 -11 15 -20 21 -20 5
0 2 12 -8 26 -14 22 -15 29 -3 47 12 21 12 21 -7 5 -27 -25 -31 -23 -36 15 -2
17 -4 3 -4 -33z"/>
<path d="M905 1651 c15 -6 21 -20 26 -62 l6 -54 1 57 c2 45 6 57 20 61 9 3 -3
5 -28 5 -31 0 -39 -2 -25 -7z"/>
<path d="M243 1595 c0 -27 2 -38 4 -22 2 15 2 37 0 50 -2 12 -4 0 -4 -28z"/>
<path d="M363 1595 c0 -27 2 -38 4 -22 2 15 2 37 0 50 -2 12 -4 0 -4 -28z"/>
<path d="M643 1623 c-19 -7 -16 -72 3 -80 39 -15 69 40 39 71 -17 17 -22 18
-42 9z m37 -22 c13 -25 2 -53 -19 -49 -17 3 -26 31 -17 54 8 20 23 18 36 -5z"/>
<path d="M722 1580 c1 -43 2 -44 5 -7 3 24 9 37 19 37 8 0 14 4 14 9 0 6 -9 9
-20 8 -17 -1 -20 -8 -18 -47z"/>
<path d="M993 1585 c0 -27 2 -38 4 -22 2 15 2 37 0 50 -2 12 -4 0 -4 -28z"/>
<path d="M1021 1580 c2 -34 3 -38 6 -15 10 64 42 69 45 7 1 -36 1 -36 5 -5 5
36 30 64 37 42 3 -8 7 -27 9 -44 3 -23 4 -20 6 13 0 23 -2 42 -6 43 -5 0 -29
2 -55 3 l-48 2 1 -46z"/>
<path d="M1168 1619 c-22 -12 -23 -52 -3 -69 15 -12 55 -5 55 11 0 5 -9 4 -20
-3 -17 -11 -22 -10 -30 2 -8 12 -3 16 20 18 31 3 38 20 18 40 -14 14 -18 14
-40 1z m40 -17 c2 -7 -7 -12 -23 -12 -24 0 -26 2 -15 15 14 17 31 16 38 -3z"/>
<path d="M6075 1620 c3 -5 8 -10 11 -10 2 0 4 5 4 10 0 6 -5 10 -11 10 -5 0
-7 -4 -4 -10z"/>
<path d="M6075 1590 c-3 -5 -1 -10 4 -10 6 0 11 5 11 10 0 6 -2 10 -4 10 -3 0
-8 -4 -11 -10z"/>
<path d="M283 1533 c15 -2 37 -2 50 0 12 2 0 4 -28 4 -27 0 -38 -2 -22 -4z"/>
<path d="M283 1253 c15 -2 37 -2 50 0 12 2 0 4 -28 4 -27 0 -38 -2 -22 -4z"/>
<path d="M500 1240 c-11 -11 -20 -29 -20 -40 0 -23 33 -60 54 -60 30 0 46 13
46 36 0 19 -5 24 -22 23 -17 -1 -19 -2 -5 -6 24 -6 21 -30 -5 -39 -16 -5 -27
-1 -40 16 -22 27 -23 44 -2 64 18 18 40 21 49 6 3 -5 11 -10 17 -10 7 0 6 6
-2 15 -17 21 -46 19 -70 -5z"/>
<path d="M933 1253 c-26 -10 -13 -43 23 -58 20 -8 34 -20 32 -27 -7 -21 -41
-22 -55 -2 -12 16 -13 16 -13 1 0 -21 45 -33 65 -17 24 20 17 40 -20 56 -19 8
-35 19 -35 24 0 16 30 24 43 11 17 -17 31 -13 17 4 -12 15 -34 18 -57 8z"/>
<path d="M1623 1200 c0 -36 2 -55 4 -42 5 28 19 28 33 1 7 -11 14 -18 17 -16
3 3 -2 16 -11 28 -14 21 -14 25 2 43 17 21 17 21 -4 4 -28 -24 -32 -23 -37 15
-2 17 -4 3 -4 -33z"/>
<path d="M738 1239 c-8 -24 7 -92 22 -97 13 -4 13 -3 2 10 -7 9 -12 32 -10 52
2 35 -6 58 -14 35z"/>
<path d="M1788 1239 c-8 -24 7 -92 22 -97 13 -4 13 -3 2 10 -7 9 -12 32 -10
52 2 35 -6 58 -14 35z"/>
<path d="M243 1195 c0 -27 2 -38 4 -22 2 15 2 37 0 50 -2 12 -4 0 -4 -28z"/>
<path d="M363 1195 c0 -27 2 -38 4 -22 2 15 2 37 0 50 -2 12 -4 0 -4 -28z"/>
<path d="M616 1214 c-19 -18 -20 -28 -6 -55 23 -41 78 -4 62 41 -11 31 -34 37
-56 14z m39 -30 c0 -19 -6 -30 -17 -32 -21 -4 -34 34 -17 54 18 22 34 11 34
-22z"/>
<path d="M792 1218 c-30 -30 -2 -86 38 -73 34 11 22 85 -15 85 -6 0 -16 -5
-23 -12z m43 -34 c0 -22 -5 -29 -20 -29 -23 0 -32 30 -14 51 18 22 34 11 34
-22z"/>
<path d="M1078 1193 c-4 -53 -32 -57 -46 -6 -7 27 -10 31 -11 15 -2 -37 17
-62 44 -60 22 2 25 7 25 45 0 53 -8 56 -12 6z"/>
<path d="M1133 1223 c-7 -2 -13 -12 -13 -21 0 -13 2 -13 13 3 17 23 37 12 37
-21 0 -28 -28 -44 -41 -23 -6 10 -8 3 -8 -21 1 -19 3 -28 5 -20 3 9 15 20 27
25 25 11 34 49 17 71 -13 15 -17 16 -37 7z"/>
<path d="M1210 1216 c-15 -20 -9 -56 12 -70 14 -8 21 -6 35 9 16 17 17 18 1 6
-19 -14 -48 -9 -48 9 0 5 14 10 30 10 31 0 39 17 18 38 -16 16 -33 15 -48 -2z
m44 -11 c4 -11 -1 -15 -19 -15 -26 0 -34 15 -12 23 20 9 25 8 31 -8z"/>
<path d="M1292 1180 c1 -37 2 -39 5 -12 3 18 11 36 19 39 21 8 17 22 -6 20
-17 -1 -20 -8 -18 -47z"/>
<path d="M1362 1222 c-7 -2 -11 -20 -11 -45 l2 -42 6 38 c3 21 11 38 16 38 6
0 13 -17 16 -38 4 -27 7 -30 8 -12 0 14 7 34 15 45 16 21 22 14 29 -41 3 -17
4 -10 3 15 -1 44 -2 44 -36 45 -19 1 -41 0 -48 -3z"/>
<path d="M1493 1223 c-7 -2 -13 -9 -13 -15 0 -6 6 -6 15 2 8 6 19 9 25 5 16
-10 12 -25 -9 -25 -10 0 -24 -6 -30 -14 -15 -17 6 -36 37 -33 20 1 23 6 20 42
-3 39 -16 51 -45 38z m37 -52 c0 -6 -5 -13 -10 -16 -15 -9 -43 3 -35 15 8 13
45 13 45 1z"/>
<path d="M1583 1223 c-8 -3 -12 -21 -11 -46 l1 -42 4 37 c3 24 10 38 21 40 9
2 13 6 7 9 -5 4 -16 4 -22 2z"/>
<path d="M1712 1221 c-21 -13 -11 -75 12 -79 10 -2 22 0 27 5 6 6 1 9 -12 9
-12 -1 -24 5 -26 12 -3 8 6 12 26 12 34 0 39 11 15 34 -18 18 -24 19 -42 7z
m36 -19 c2 -7 -6 -12 -17 -12 -21 0 -27 11 -14 24 9 9 26 2 31 -12z"/>
<path d="M6075 1220 c3 -5 8 -10 11 -10 2 0 4 5 4 10 0 6 -5 10 -11 10 -5 0
-7 -4 -4 -10z"/>
<path d="M6075 1190 c-3 -5 -1 -10 4 -10 6 0 11 5 11 10 0 6 -2 10 -4 10 -3 0
-8 -4 -11 -10z"/>
<path d="M283 1133 c15 -2 37 -2 50 0 12 2 0 4 -28 4 -27 0 -38 -2 -22 -4z"/>
<path d="M283 853 c15 -2 37 -2 50 0 12 2 0 4 -28 4 -27 0 -38 -2 -22 -4z"/>
<path d="M493 853 c13 -4 17 -16 19 -61 l1 -57 6 54 c5 42 11 56 26 62 14 5 6
7 -25 7 -25 0 -37 -2 -27 -5z"/>
<path d="M653 800 c0 -36 2 -50 4 -32 2 17 2 47 0 65 -2 17 -4 3 -4 -33z"/>
<path d="M693 800 c0 -36 2 -55 4 -42 2 12 7 22 10 22 2 0 14 -10 25 -22 l20
-23 -17 28 c-13 22 -14 31 -4 43 7 9 8 14 1 14 -6 0 -14 -6 -19 -12 -5 -9 -10
-1 -14 22 -5 26 -6 18 -6 -30z"/>
<path d="M1012 800 c1 -54 2 -58 7 -25 4 26 11 40 21 40 10 0 17 -14 21 -40
l6 -40 2 43 c0 23 -3 43 -9 44 -5 0 -16 1 -22 2 -7 1 -16 10 -20 21 -3 11 -6
-9 -6 -45z"/>
<path d="M968 838 c-6 -18 2 -98 11 -98 7 0 6 99 -2 106 -2 3 -7 -1 -9 -8z"/>
<path d="M1398 839 c-8 -25 7 -92 22 -96 12 -4 12 -2 2 5 -8 5 -12 25 -11 50
3 41 -5 65 -13 41z"/>
<path d="M243 795 c0 -27 2 -38 4 -22 2 15 2 37 0 50 -2 12 -4 0 -4 -28z"/>
<path d="M363 795 c0 -27 2 -38 4 -22 2 15 2 37 0 50 -2 12 -4 0 -4 -28z"/>
<path d="M569 813 c-13 -16 -12 -17 3 -5 9 8 22 11 28 7 17 -11 11 -23 -12
-27 -15 -2 -23 -10 -23 -23 0 -16 7 -20 33 -20 29 -1 32 2 32 30 0 51 -34 72
-61 38z m41 -43 c0 -12 -28 -25 -36 -17 -9 9 6 27 22 27 8 0 14 -5 14 -10z"/>
<path d="M845 800 c-7 -33 -24 -31 -26 3 -1 14 -3 16 -6 6 -2 -8 1 -29 8 -45
l11 -29 13 35 13 35 7 -32 c4 -18 11 -33 15 -33 8 0 33 80 27 87 -3 2 -8 -9
-12 -26 -7 -33 -25 -33 -25 -1 0 32 -18 32 -25 0z"/>
<path d="M933 785 c0 -27 2 -38 4 -22 2 15 2 37 0 50 -2 12 -4 0 -4 -28z"/>
<path d="M1140 785 c0 -27 2 -46 4 -44 8 8 10 78 3 85 -4 4 -7 -14 -7 -41z"/>
<path d="M1179 817 c5 -7 11 -28 13 -47 l3 -35 5 42 c5 35 2 43 -13 47 -13 3
-15 1 -8 -7z"/>
<path d="M1227 820 c6 -8 13 -31 16 -50 l4 -35 1 36 c1 24 -4 41 -15 50 -16
12 -16 12 -6 -1z"/>
<path d="M1271 824 c-1 -6 6 -29 15 -50 15 -35 15 -39 -2 -51 -15 -11 -16 -13
-2 -13 10 0 22 16 31 43 8 23 18 51 23 61 5 13 4 17 -4 13 -6 -4 -14 -22 -18
-40 l-7 -32 -18 40 c-10 22 -18 35 -18 29z"/>
<path d="M1450 816 c-15 -20 -9 -56 12 -70 14 -8 21 -6 35 9 16 17 17 18 1 6
-19 -14 -48 -9 -48 9 0 5 14 10 30 10 31 0 39 17 18 38 -16 16 -33 15 -48 -2z
m44 -11 c4 -11 -1 -15 -19 -15 -26 0 -34 15 -12 23 20 9 25 8 31 -8z"/>
<path d="M1539 813 c-13 -16 -12 -17 3 -5 9 8 22 11 28 7 17 -11 11 -23 -12
-27 -15 -2 -23 -10 -23 -23 0 -16 7 -20 33 -20 29 -1 32 2 32 30 0 51 -34 72
-61 38z m41 -43 c0 -12 -28 -25 -36 -17 -9 9 6 27 22 27 8 0 14 -5 14 -10z"/>
<path d="M1620 785 c0 -27 2 -46 4 -44 8 8 10 78 3 85 -4 4 -7 -14 -7 -41z"/>
<path d="M1659 817 c5 -7 11 -28 13 -47 l3 -35 5 42 c5 35 2 43 -13 47 -13 3
-15 1 -8 -7z"/>
<path d="M1707 820 c6 -8 13 -31 16 -50 l4 -35 1 36 c1 24 -4 41 -15 50 -16
12 -16 12 -6 -1z"/>
<path d="M1812 822 c-7 -2 -11 -20 -11 -45 l2 -42 6 39 c7 45 28 59 35 24 3
-13 7 -32 9 -43 3 -11 5 -3 6 17 1 35 15 57 28 44 3 -3 9 -23 13 -43 7 -35 8
-36 9 -8 0 17 -3 37 -9 45 -8 14 -61 21 -88 12z"/>
<path d="M1940 816 c-15 -20 -9 -56 12 -70 14 -8 21 -6 35 9 16 17 17 18 1 6
-19 -14 -48 -9 -48 9 0 5 14 10 30 10 31 0 39 17 18 38 -16 16 -33 15 -48 -2z
m44 -11 c4 -11 -1 -15 -19 -15 -26 0 -34 15 -12 23 20 9 25 8 31 -8z"/>
<path d="M2020 785 c0 -27 2 -46 4 -44 8 8 10 78 3 85 -4 4 -7 -14 -7 -41z"/>
<path d="M2059 817 c5 -7 11 -28 13 -47 l3 -35 5 42 c5 35 2 43 -13 47 -13 3
-15 1 -8 -7z"/>
<path d="M2107 820 c6 -8 13 -31 16 -50 l4 -35 1 36 c1 24 -4 41 -15 50 -16
12 -16 12 -6 -1z"/>
<path d="M2160 806 c0 -19 1 -19 13 -1 8 10 19 15 25 11 18 -11 14 -54 -5 -66
-17 -11 -17 -11 0 -6 10 3 21 6 23 6 10 0 3 59 -8 67 -22 17 -48 11 -48 -11z"/>
<path d="M2250 816 c-15 -20 -9 -56 12 -70 14 -8 21 -6 35 9 16 17 17 18 1 6
-19 -14 -48 -9 -48 9 0 5 14 10 30 10 31 0 39 17 18 38 -16 16 -33 15 -48 -2z
m44 -11 c4 -11 -1 -15 -19 -15 -26 0 -34 15 -12 23 20 9 25 8 31 -8z"/>
<path d="M2332 780 c1 -37 2 -39 5 -12 3 18 11 36 19 39 21 8 17 22 -6 20 -17
-1 -20 -8 -18 -47z"/>
<path d="M2393 823 c-22 -8 -14 -33 12 -43 26 -10 34 -30 12 -30 -7 0 -18 5
-25 12 -9 9 -12 9 -12 1 0 -14 36 -27 50 -18 18 11 10 35 -16 45 -30 12 -22
34 9 25 17 -5 19 -4 7 4 -16 12 -19 12 -37 4z"/>
<path d="M6075 820 c3 -5 8 -10 11 -10 2 0 4 5 4 10 0 6 -5 10 -11 10 -5 0 -7
-4 -4 -10z"/>
<path d="M6075 790 c-3 -5 -1 -10 4 -10 6 0 11 5 11 10 0 6 -2 10 -4 10 -3 0
-8 -4 -11 -10z"/>
<path d="M283 733 c15 -2 37 -2 50 0 12 2 0 4 -28 4 -27 0 -38 -2 -22 -4z"/>
<path d="M2548 459 c-13 -7 -18 -22 -18 -50 0 -33 4 -41 26 -51 28 -13 54 -3
62 23 3 9 -3 7 -17 -6 -28 -25 -55 -11 -59 32 -4 39 21 62 49 45 26 -16 34
-15 19 3 -14 17 -37 19 -62 4z"/>
<path d="M2643 410 c0 -36 2 -50 4 -32 2 17 2 47 0 65 -2 17 -4 3 -4 -33z"/>
<path d="M3043 410 c0 -36 2 -50 4 -32 2 17 2 47 0 65 -2 17 -4 3 -4 -33z"/>
<path d="M3083 410 c0 -36 2 -50 4 -32 2 17 2 47 0 65 -2 17 -4 3 -4 -33z"/>
<path d="M3553 410 c0 -36 2 -50 4 -32 2 17 2 47 0 65 -2 17 -4 3 -4 -33z"/>
<path d="M3860 450 c0 -12 -5 -17 -14 -14 -14 5 -46 -20 -46 -37 0 -26 22 -49
45 -47 23 2 25 6 25 60 0 32 -2 58 -5 58 -3 0 -5 -9 -5 -20z m-5 -56 c0 -19
-6 -30 -17 -32 -21 -4 -34 34 -17 54 18 22 34 11 34 -22z"/>
<path d="M3678 448 c-6 -18 2 -98 11 -98 7 0 6 99 -2 106 -2 3 -7 -1 -9 -8z"/>
<path d="M2692 431 c-8 -5 -12 -22 -10 -42 2 -28 7 -34 27 -34 13 0 26 7 28
15 4 12 3 13 -5 1 -6 -8 -17 -11 -26 -8 -27 10 -18 27 14 27 33 0 35 3 20 31
-11 20 -27 24 -48 10z m36 -19 c2 -7 -6 -12 -17 -12 -21 0 -27 11 -14 24 9 9
26 2 31 -12z"/>
<path d="M2777 434 c-14 -14 -7 -26 8 -14 8 6 19 9 25 5 16 -10 12 -25 -9 -25
-23 0 -42 -22 -32 -38 4 -7 20 -11 35 -10 25 2 27 5 24 43 -2 31 -7 41 -23 43
-12 2 -24 0 -28 -4z m41 -56 c-7 -19 -38 -22 -38 -4 0 10 9 16 21 16 12 0 19
-5 17 -12z"/>
<path d="M2873 433 c-8 -3 -12 -21 -11 -46 l1 -42 4 37 c3 24 10 38 21 40 9 2
13 6 7 9 -5 4 -16 4 -22 2z"/>
<path d="M2960 425 c-9 -10 -9 -15 -1 -15 6 0 11 5 11 11 0 6 8 9 17 7 24 -4
18 -22 -9 -28 -14 -4 -23 -13 -23 -25 0 -16 7 -20 33 -21 31 -1 32 1 32 36 0
25 -5 40 -16 44 -23 9 -30 8 -44 -9z m44 -50 c-7 -16 -30 -20 -38 -6 -7 11 4
21 25 21 12 0 16 -5 13 -15z"/>
<path d="M3171 426 c-7 -8 -11 -27 -9 -43 2 -22 8 -28 27 -28 13 0 27 7 29 15
4 13 3 13 -11 2 -21 -17 -37 -7 -37 23 0 26 22 39 39 22 8 -8 11 -8 11 0 0 6
-7 14 -16 17 -21 8 -20 8 -33 -8z"/>
<path d="M3254 432 c-17 -11 -22 -35 -13 -59 15 -40 69 -23 69 22 0 35 -30 55
-56 37z m36 -21 c13 -25 2 -53 -19 -49 -17 3 -26 31 -17 54 8 20 23 18 36 -5z"/>
<path d="M3342 432 c-7 -2 -11 -20 -11 -45 l2 -42 6 39 c7 45 28 59 35 24 3
-13 7 -32 9 -43 3 -11 5 -3 6 17 1 35 15 57 28 44 3 -3 9 -23 13 -43 l8 -38 1
37 c0 20 -5 40 -11 45 -14 8 -66 12 -86 5z"/>
<path d="M3461 375 c1 -33 3 -52 6 -42 2 9 12 17 22 17 24 0 41 20 41 46 0 26
-15 39 -47 39 -22 1 -23 -3 -22 -60z m55 31 c7 -28 -1 -46 -21 -46 -18 0 -27
28 -15 51 14 26 28 24 36 -5z"/>
<path d="M3592 428 c-16 -16 -15 -53 3 -68 16 -13 55 -5 55 12 0 6 -6 5 -16
-2 -12 -11 -18 -10 -32 3 -15 16 -14 17 16 17 20 0 32 5 32 13 0 16 -20 37
-35 37 -6 0 -16 -5 -23 -12z m46 -16 c2 -7 -6 -12 -17 -12 -21 0 -27 11 -14
24 9 9 26 2 31 -12z"/>
<path d="M3732 431 c-8 -5 -12 -22 -10 -42 2 -28 7 -34 27 -34 13 0 26 7 28
15 4 12 3 13 -5 1 -6 -8 -17 -11 -26 -8 -27 10 -18 27 14 27 33 0 35 3 20 31
-11 20 -27 24 -48 10z m36 -19 c2 -7 -6 -12 -17 -12 -21 0 -27 11 -14 24 9 9
26 2 31 -12z"/>
</g>
</svg>
